<svg width="25" height="50" viewBox="0 0 50 70" fill="black" xmlns="http://www.w3.org/2000/svg">
<path d="M14.4644 31.5286C11.3834 32.8783 9.74381 34.9797 9.54557 37.8328C9.45685 39.1097 9.80444 40.1663 10.5884 41.0027C11.648 42.199 13.355 42.879 15.7093 43.0425L15.753 42.4141C15.7103 42.4512 15.4203 42.4411 14.883 42.3837C14.367 42.3077 13.7083 42.1216 12.9069 41.8254C12.1069 41.5092 11.4741 41.0943 11.0086 40.5808C10.3403 39.8126 10.0421 38.9098 10.1142 37.8723C10.2736 35.5778 11.5099 33.7992 13.823 32.5365C16.1574 31.2553 19.3814 30.5871 23.4952 30.5321L19.4722 46.8826C19.2915 47.7522 19.0574 48.6681 18.77 49.6305C18.617 50.1011 18.3991 50.4969 18.1161 50.8181C17.8318 51.1592 17.4966 51.3665 17.1106 51.4399C16.7432 51.5346 16.1683 51.5849 15.386 51.5907L15.3465 52.1593C17.1621 52.2855 18.911 51.7855 20.5931 50.6594C22.2738 49.5532 23.3885 47.9366 23.9373 45.8095C24.71 43.0564 25.9028 38.007 27.5159 30.6611C30.0883 30.8599 32.0344 31.4161 33.3543 32.3298C34.6954 33.2249 35.3147 34.4107 35.2122 35.8872C35.0888 37.6629 34.2009 39.0447 32.5484 40.0325C30.896 41.0203 29.1121 41.4477 27.1967 41.3146L27.1551 41.9132C27.9532 41.9686 28.6763 41.9487 29.3245 41.8534L30.0477 42.2645C30.5099 42.5372 30.9583 43.0094 31.3927 43.6812C31.8486 44.3343 32.0488 45.0599 31.9933 45.858C31.8963 47.2547 31.1994 48.339 29.9028 49.1109C28.8367 49.7386 27.3061 49.9831 25.3109 49.8444C24.8919 49.8153 24.4544 49.7649 23.9982 49.6931L23.9567 50.2916C26.2711 50.4524 28.5444 50.3397 30.7765 49.9535C32.0956 49.7244 33.1698 49.2678 33.9992 48.5836C34.85 47.8809 35.3142 46.9709 35.3918 45.8536C35.5415 43.6988 33.7953 42.2843 30.1533 41.6103C31.8653 41.208 33.2176 40.5 34.2103 39.4864C35.2229 38.4741 35.7763 37.2896 35.8706 35.9329C35.9829 34.3168 35.3533 32.99 33.9819 31.9524C32.6105 30.9149 30.3786 30.2887 27.286 30.0738C21.8392 29.6953 17.5653 30.1803 14.4644 31.5286Z" fill="red"/>
<path fill-rule="evenodd" clip-rule="evenodd" d="M25 70C38.2548 70 50 40.464 50 25C50 9.53603 38.2548 0 25 0C11.7452 0 0 9.53603 0 25C0 40.464 11.7452 70 25 70ZM49 25C49 32.5406 46.1181 43.6386 41.5736 52.8568C39.3062 57.4562 36.6532 61.5284 33.7906 64.4367C40.297 56.2208 45 40.8061 45 31.4286C45 18.1737 35.6039 10 25 10C14.3961 10 5 18.1737 5 31.4286C5 40.8061 9.70301 56.2208 16.2094 64.4367C13.3468 61.5284 10.6938 57.4562 8.42637 52.8568C3.88191 43.6386 1 32.5406 1 25C1 10.1458 12.2381 1 25 1C37.7619 1 49 10.1458 49 25ZM6 31.4286C6 35.8307 7.07246 41.654 8.90785 47.4165C7.69367 43.0094 7 38.7023 7 35.2857C7 23.3564 15.4565 16 25 16C34.5435 16 43 23.3564 43 35.2857C43 38.7023 42.3063 43.0094 41.0921 47.4166C42.9275 41.654 44 35.8307 44 31.4286C44 18.7194 35.045 11 25 11C14.955 11 6 18.7194 6 31.4286ZM18.8976 65.5767C20.953 67.8128 23.0231 69 25 69C26.9769 69 29.047 67.8128 31.1024 65.5767C33.1416 63.3584 35.0415 60.2384 36.6704 56.6984C39.9331 49.6072 42 41.0721 42 35.2857C42 23.902 33.9846 17 25 17C16.0154 17 8 23.902 8 35.2857C8 41.0721 10.0669 49.6072 13.3296 56.6984C14.9585 60.2384 16.8584 63.3584 18.8976 65.5767Z" fill="dark"/>
</svg>
